<?xml version="1.0" encoding="UTF-8" standalone="no"?>
<svg
   xmlns:dc="http://purl.org/dc/elements/1.1/"
   xmlns:cc="http://creativecommons.org/ns#"
   xmlns:rdf="http://www.w3.org/1999/02/22-rdf-syntax-ns#"
   xmlns:svg="http://www.w3.org/2000/svg"
   xmlns="http://www.w3.org/2000/svg"
   xmlns:sodipodi="http://sodipodi.sourceforge.net/DTD/sodipodi-0.dtd"
   xmlns:inkscape="http://www.inkscape.org/namespaces/inkscape"
   width="160mm"
   height="160mm"
   viewBox="0 0 160 160.00002"
   version="1.1"
   id="svg8"
   inkscape:version="1.0.1 (3bc2e813f5, 2020-09-07)"
   sodipodi:docname="icon.svg">
  <defs
     id="defs2" />
  <sodipodi:namedview
     id="base"
     pagecolor="#ffffff"
     bordercolor="#666666"
     borderopacity="1.0"
     inkscape:pageopacity="0.0"
     inkscape:pageshadow="2"
     inkscape:zoom="0.7"
     inkscape:cx="323.86237"
     inkscape:cy="318.63688"
     inkscape:document-units="mm"
     inkscape:current-layer="layer1"
     inkscape:document-rotation="0"
     showgrid="false"
     units="mm"
     inkscape:window-width="1240"
     inkscape:window-height="865"
     inkscape:window-x="479"
     inkscape:window-y="348"
     inkscape:window-maximized="0" />
  <metadata
     id="metadata5">
    <rdf:RDF>
      <cc:Work
         rdf:about="">
        <dc:format>image/svg+xml</dc:format>
        <dc:type
           rdf:resource="http://purl.org/dc/dcmitype/StillImage" />
        <dc:title></dc:title>
      </cc:Work>
    </rdf:RDF>
  </metadata>
  <g
     inkscape:label="Ebene 1"
     inkscape:groupmode="layer"
     id="layer1">
    <path
       sodipodi:type="star"
       style="fill:#008000;stroke-width:0.264583"
       id="path905"
       sodipodi:sides="15"
       sodipodi:cx="70.513252"
       sodipodi:cy="65.695694"
       sodipodi:r1="73.942505"
       sodipodi:r2="33.144283"
       sodipodi:arg1="0.68945996"
       sodipodi:arg2="0.89889947"
       inkscape:flatsided="false"
       inkscape:rounded="0.2"
       inkscape:randomized="0.06"
       d="m 131.21128,113.96616 c -5.78073,5.92747 -33.224032,-23.750213 -39.821224,-18.576916 -6.597191,5.173296 24.152014,33.157706 16.453444,36.179856 -7.69856,3.02215 -22.082181,-33.863654 -30.426666,-31.53392 -8.344485,2.32974 1.812973,36.4367 -6.476254,36.8607 -8.289227,0.42399 5.058853,-34.37291 -3.017437,-35.97081 C 59.846852,99.327161 49.428629,133.8162 41.17498,131.26588 32.921331,128.71555 56.147815,96.452769 49.439529,91.04787 42.731243,85.642971 21.195313,120.48236 15.373768,114.41269 9.5522225,108.34302 47.733619,88.888376 43.685298,81.485809 39.636976,74.083241 2.8592753,97.044364 0.17804707,88.941475 -2.5031811,80.838586 36.617513,76.122618 35.22967,68.034235 33.841826,59.945852 -4.8816277,73.728024 -4.8754122,65.369403 -4.8691967,57.010783 34.048623,65.871292 36.785107,57.832047 39.521592,49.792803 4.5427285,39.526396 8.0810733,32.105354 11.619418,24.684313 42.163175,55.818561 47.233182,48.947022 52.303189,42.075483 21.356958,16.237218 28.235381,11.69812 35.113804,7.159022 50.416761,37.626976 57.840767,33.673349 65.264773,29.719722 48.198105,-2.3966832 56.0507,-5.119652 c 7.852594,-2.7229688 7.51936,33.923984 16.07893,34.053202 8.55957,0.129218 -0.470946,-35.7686611 7.973646,-34.8682642 8.444591,0.9003969 -7.672331,34.7391962 0.04624,38.5783362 7.71857,3.83914 26.099954,-36.7778843 33.417854,-32.4765604 7.31789,4.3013239 -26.446574,39.5501364 -20.154264,45.3817194 6.29231,5.831583 38.629154,-29.133608 43.353984,-21.999661 4.72483,7.133946 -39.062598,24.311867 -36.28093,32.501464 2.78167,8.189598 45.73047,-5.53094 47.54817,2.73685 1.8177,8.26779 -40.22334,2.237522 -40.15034,10.427898 0.073,8.190375 34.48326,5.39067 31.70566,13.386583 -2.77759,7.995913 -36.48673,-8.052079 -39.917341,-0.129636 -3.430612,7.922443 37.319711,25.566401 31.538971,31.493881 z"
       inkscape:transform-center-x="-2.881347"
       inkscape:transform-center-y="2.4040917"
       transform="matrix(1.0329023,0,0,1.1060468,6.0358253,7.5825006)" />
  </g>
</svg>
